<?xml version="1.0" encoding="UTF-8"?>
<svg xmlns:xodm="http://www.corel.com/coreldraw/odm/2003" xmlns="http://www.w3.org/2000/svg" xmlns:xlink="http://www.w3.org/1999/xlink" version="1.1" id="Layer_1" x="0px" y="0px" viewBox="0 0 2500 818" style="enable-background:new 0 0 2500 818;" xml:space="preserve">
<style type="text/css">
	.st0{fill:#C53A17;}
</style>
<g id="Layer_x0020_1">
	<g id="_2990647576832">
		<path d="M594.4,364h111.9c19.1,0,33.7,5.5,42.8,15.5s13.6,21.8,13.6,36.4c0,15.5-4.5,29.1-14.6,40c-9.1,11.8-24.6,19.1-45.5,21.8    c12.7,10,27.3,37.3,44.6,82.8h-64.6c-5.5-14.6-11.8-30-19.1-46.4c-7.3-17.3-12.7-26.4-16.4-29.1c-3.6-2.7-8.2-3.6-13.6-3.6h-3.6    l-16.4,80.1h-61l41.9-196.5V364z M638.1,444h11.8c19.1,0,31.8-0.9,37.3-2.7s10-4.5,12.7-9.1s4.5-8.2,4.5-11.8    c0-5.5-1.8-9.1-4.5-11.8c-3.6-2.7-10.9-4.5-21.8-4.5h-30.9l-8.2,40H638.1z M957.5,560.5h-59.1l-2.7-31.8h-63.7l-15.5,31.8h-65.5    l111-196.5h64.6L957.5,560.5z M891,486.8l-6.4-71.9h-0.9l-33.7,71.9h40H891z M1021.2,364h89.2c16.4,0,29.1,1.8,38.2,6.4    c8.2,3.6,14.6,10,19.1,17.3c4.5,8.2,6.4,17.3,6.4,29.1c0,14.6-3.6,28.2-11.8,39.1c-8.2,11.8-18.2,20-30,24.6    c-11.8,4.5-29.1,7.3-50,7.3h-27.3l-15.5,72.8h-61L1021.2,364z M1063.9,449.5h20.9c10,0,17.3-2.7,23.7-8.2c6.4-5.5,9.1-12.7,9.1-20    c0-11.8-6.4-17.3-19.1-17.3h-23.7l-10,46.4L1063.9,449.5z M1391.5,364l-10,48.2h-63.7l-31.8,148.3h-61l31.8-148.3h-61l10-48.2    H1391.5z M1499.8,360.3c30,0,51.9,8.2,66.4,23.7c13.6,16.4,20.9,35.5,20.9,59.1c0,9.1-0.9,19.1-3.6,30.9    c-2.7,11.8-7.3,23.7-15.5,36.4c-7.3,12.7-17.3,22.7-29.1,31.8c-11.8,9.1-23.7,14.6-34.6,17.3c-10.9,2.7-22.7,4.5-34.6,4.5    c-28.2,0-50-7.3-65.5-20.9c-15.5-14.6-23.7-34.6-23.7-60.1c0-13.6,1.8-26.4,5.5-39.1c3.6-12.7,10-24.6,17.3-36.4    c7.3-10.9,17.3-20.9,28.2-28.2c10.9-7.3,22.7-12.7,33.7-14.6c10.9-2.7,21.8-3.6,33.7-3.6L1499.8,360.3z M1474.3,518.6    c11.8,0,21.8-4.5,30-13.6c8.2-9.1,14.6-20,18.2-33.7c3.6-13.6,5.5-22.7,5.5-29.1c0-12.7-3.6-21.8-10-28.2s-14.6-10-24.6-10    c-10.9,0-20.9,3.6-28.2,11.8c-8.2,8.2-13.6,19.1-18.2,32.8c-3.6,13.6-6.4,24.6-6.4,34.6c0,10,2.7,18.2,9.1,24.6    c5.5,6.4,13.6,10,24.6,10V518.6z M1639,364h111.9c19.1,0,33.7,5.5,42.8,15.5s13.6,21.8,13.6,36.4c0,15.5-4.5,29.1-14.6,40    c-9.1,11.8-24.6,19.1-45.5,21.8c12.7,10,27.3,37.3,44.6,82.8h-64.6c-5.5-14.6-11.8-30-19.1-46.4c-7.3-17.3-12.7-26.4-16.4-29.1    c-3.6-2.7-8.2-3.6-13.6-3.6h-3.6l-16.4,80.1h-61l41.9-196.5V364z M1682.7,444h11.8c19.1,0,31.8-0.9,37.3-2.7    c5.5-1.8,10-4.5,12.7-9.1s4.5-8.2,4.5-11.8c0-5.5-1.8-9.1-4.5-11.8c-3.6-2.7-10.9-4.5-21.8-4.5h-30.9l-8.2,40H1682.7z M2013,364    l-9.1,41.9h-100.1l-6.4,30.9h96.4l-9.1,40h-96.4l-8.2,38.2h108.3l-10,44.6h-169.2l41.9-196.5h160.1L2013,364z M2238.6,364    l-25.5,118.3c-6.4,27.3-16.4,48.2-31.8,61.9s-38.2,20-68.2,20c-16.4,0-30-1.8-40-4.5c-10-3.6-18.2-8.2-25.5-14.6    s-11.8-14.6-14.6-22.7c-2.7-8.2-4.5-17.3-4.5-27.3c0-11.8,0.9-23.7,3.6-35.5l20-95.5h61l-23.7,111c-0.9,5.5-1.8,10.9-1.8,16.4    c0,15.5,9.1,23.7,27.3,23.7c10,0,18.2-2.7,24.6-9.1c7.3-5.5,11.8-17.3,15.5-34.6l22.7-107.4H2238.6z M2498.8,364l-42.8,196.5h-51    l36.4-150.1h-0.9l-72.8,150.1h-44.6l-8.2-150.1h-0.9l-28.2,150.1h-51l41.9-196.5h73.7l7.3,124.7h0.9l61.9-124.7h76.4H2498.8z"></path>
		<g>
			<path d="M764.6,158.3c35.5-18.2,99.2-27.3,103.7-26.4c-3.6,1.8-47.3,23.7-88.3,57.3c-47.3,35.5-89.2,62.8-146.5,80.1     C584.4,283.9,511.6,293,467,294.8c50-6.4,122.8-44.6,166.5-68.2C677.2,203.8,729.1,176.5,764.6,158.3z"></path>
			<path class="st0" d="M655.4,61C711.8,54.6,760,25.5,810.1,0c-28.2,51.9-71,94.6-113.7,130.1l0,0     c-129.2,46.4-383.1,128.3-454,169.2c-102.8,60.1-147.4,141-153.8,158.3l0,0c-26.4,28.2-40,50-56.4,73.7     c-1.8-14.6-4.5-26.4-5.5-39.1c-1.8-33.7-3.6-67.3-3.6-101c0.9-39.1,10-76.4,22.7-113.7c25.5-69.2,91.9-113.7,161.1-139.2     c57.3-20.9,124.7-40.9,446.8-78.3L655.4,61z"></path>
			<path d="M695.4,130.1L695.4,130.1c-48.2,39.1-95.5,68.2-124.7,85.5c-68.2,40.9-263,124.7-315.7,146.5     c-40.9,16.4-92.8,29.1-144.7,74.6c-8.2,7.3-15.5,14.6-21.8,20.9l0,0c6.4-17.3,51-98.3,153.8-158.3c71-40.9,324.8-122.8,454-169.2     H695.4z"></path>
			<path class="st0" d="M456.1,331.2c2.7,5.5,35.5,61.9,20,143.8c-20,80.1-76.4,187.4-172.9,217.5c-40,12.7-68.2,10.9-108.3-0.9     c-51.9-15.5-93.7-45.5-130.1-89.2c96.4,36.4,196.5,30.9,273-24.6C413.3,522.3,464.3,428.6,456.1,331.2z"></path>
			<path d="M335.1,400.4c22.7,100.1-51.9,187.4-182,141.9c-5.5-2.7-5.5-4.5-3.6-9.1c22.7-59.1,81.9-118.3,175.6-135.6     C330.5,395.8,334.2,395.8,335.1,400.4z"></path>
			<path class="st0" d="M29.4,599.6c7.3,28.2,21.8,71,49.1,94.6C32.1,734.3,33.9,810.7,33,818C-11.6,741.6-7.9,642.4,29.4,599.6z"></path>
		</g>
	</g>
</g>
</svg>
