<?xml version="1.0" encoding="UTF-8"?>
<svg version="1.1" xmlns="http://www.w3.org/2000/svg" viewBox="0 0 400 225" width="400" height="225">
<path d="M0 0 C-5.47062452 15.30149926 -21.43656457 25.4586784 -35 33 C-35.79245117 33.44069824 -36.58490234 33.88139648 -37.40136719 34.33544922 C-53.89173037 43.40361355 -70.97157802 50.80512558 -88.4375 57.7734375 C-99.82742123 62.41286662 -106.68743711 68.05778796 -114.15234375 77.83984375 C-114.76207031 78.55269531 -115.37179688 79.26554687 -116 80 C-116.66 80 -117.32 80 -118 80 C-121.53180647 67.79775974 -120.62926667 50.41538597 -115 39 C-113.26906252 36.01201282 -111.37552579 33.50176146 -109 31 C-108.48695312 30.45859375 -107.97390625 29.9171875 -107.4453125 29.359375 C-92.44815671 15.1515432 -66.31993154 13.31205723 -46.85546875 11 C-46.15437485 10.9160498 -45.45328094 10.83209961 -44.73094177 10.74560547 C-41.27386453 10.33431929 -37.81612359 9.93904114 -34.35424805 9.5703125 C-23.30945957 8.30702196 -10.11623192 0 0 0 Z " fill="#B44326" transform="translate(135,51)"/>
<path d="M0 0 C0.80373047 -0.02900391 1.60746094 -0.05800781 2.43554688 -0.08789062 C7.87612973 -0.14572184 11.05046011 0.60637835 15.3125 4.3125 C17.32786061 8.5850645 17.55084919 10.5180027 16.1875 15.0625 C14.43080136 18.10744431 13.35590008 19.64353867 10.3125 21.3125 C9.6525 21.3125 8.9925 21.3125 8.3125 21.3125 C9.6325 23.9525 10.9525 26.5925 12.3125 29.3125 C12.74071045 28.6827124 13.1689209 28.0529248 13.61010742 27.40405273 C15.57256809 24.51879827 17.53627419 21.63439353 19.5 18.75 C20.17353516 17.75935547 20.84707031 16.76871094 21.54101562 15.74804688 C22.8597495 13.81175958 24.18408464 11.87927344 25.5144043 9.95092773 C26.61456625 8.33660999 27.69234694 6.70638075 28.72973633 5.05102539 C31.67292059 0.4758962 31.67292059 0.4758962 34.98828125 -0.37109375 C36.29345703 -0.24927734 36.29345703 -0.24927734 37.625 -0.125 C38.94951172 -0.03025391 38.94951172 -0.03025391 40.30078125 0.06640625 C40.96464844 0.14761719 41.62851563 0.22882813 42.3125 0.3125 C42.7737271 2.7078061 43.23147976 5.10370132 43.6875 7.5 C43.81382812 8.15419922 43.94015625 8.80839844 44.0703125 9.48242188 C45.32071157 16.07827695 46.28932447 22.66185906 47.3125 29.3125 C49.9525 19.7425 52.5925 10.1725 55.3125 0.3125 C58.014375 0.250625 60.71625 0.18875 63.5 0.125 C64.34199951 0.09768799 65.18399902 0.07037598 66.05151367 0.04223633 C71.7201797 -0.02042692 74.84895766 1.17742997 79.1875 4.9375 C81.00316182 8.77056384 80.49344951 12.30442894 79.3125 16.3125 C76.70458475 19.62525721 74.20753217 21.75032132 70.3125 23.3125 C67.515625 23.5078125 67.515625 23.5078125 64.5625 23.4375 C63.08523437 23.41042969 63.08523437 23.41042969 61.578125 23.3828125 C60.83046875 23.35960938 60.0828125 23.33640625 59.3125 23.3125 C59.168125 24.611875 59.02375 25.91125 58.875 27.25 C58.4375 31.1875 58.4375 31.1875 57.3125 32.3125 C55.75077255 32.39935603 54.18520656 32.41952219 52.62109375 32.41015625 C51.67685547 32.40693359 50.73261719 32.40371094 49.75976562 32.40039062 C48.76654297 32.39201172 47.77332031 32.38363281 46.75 32.375 C45.75291016 32.37048828 44.75582031 32.36597656 43.72851562 32.36132812 C41.25645151 32.34950007 38.78450482 32.33301849 36.3125 32.3125 C35.9825 30.6625 35.6525 29.0125 35.3125 27.3125 C31.6825 27.3125 28.0525 27.3125 24.3125 27.3125 C23.6525 28.9625 22.9925 30.6125 22.3125 32.3125 C15.3825 32.3125 8.4525 32.3125 1.3125 32.3125 C0.3225 29.3425 -0.6675 26.3725 -1.6875 23.3125 C-2.6775 23.6425 -3.6675 23.9725 -4.6875 24.3125 C-5.48962628 26.18637216 -5.48962628 26.18637216 -5.875 28.375 C-6.143125 29.674375 -6.41125 30.97375 -6.6875 32.3125 C-9.9875 32.3125 -13.2875 32.3125 -16.6875 32.3125 C-16.0296145 25.46226726 -14.45752347 19.01676261 -12.6875 12.375 C-12.41421875 11.32248047 -12.1409375 10.26996094 -11.859375 9.18554688 C-9.58743572 0.55997349 -9.0387718 0.10617195 0 0 Z M-1.6875 9.3125 C-2.0175 11.2925 -2.3475 13.2725 -2.6875 15.3125 C-0.0475 14.9825 2.5925 14.6525 5.3125 14.3125 C5.6425 12.6625 5.9725 11.0125 6.3125 9.3125 C3.6725 9.3125 1.0325 9.3125 -1.6875 9.3125 Z M63.3125 9.3125 C62.9825 11.2925 62.6525 13.2725 62.3125 15.3125 C65.7775 14.8175 65.7775 14.8175 69.3125 14.3125 C69.3125 12.6625 69.3125 11.0125 69.3125 9.3125 C67.3325 9.3125 65.3525 9.3125 63.3125 9.3125 Z M33.3125 13.3125 C32.6525 14.9625 31.9925 16.6125 31.3125 18.3125 C32.6325 17.9825 33.9525 17.6525 35.3125 17.3125 C34.6525 15.9925 33.9925 14.6725 33.3125 13.3125 Z " fill="#FEFEFE" transform="translate(112.6875,103.6875)"/>
<path d="M0 0 C3.8247104 3.12930851 4.76758825 7.16027749 5.37109375 11.9375 C5.67518524 25.96148423 0.58690554 37.79665839 -8.875 48.02734375 C-14.82011731 53.69678022 -21.66292988 57.09348388 -29.9375 57.5 C-38.05068823 57.14225312 -45.58979863 53.88396295 -52 49 C-53.36125 48.0409375 -53.36125 48.0409375 -54.75 47.0625 C-57.218309 44.79988342 -57.87720666 43.09788889 -59 40 C-58.27296875 40.2165625 -57.5459375 40.433125 -56.796875 40.65625 C-43.88391329 44.23214709 -31.66635525 44.42728916 -19.6484375 37.6796875 C-10.5119759 31.22419533 -4.06093428 22.35823346 -1.3671875 11.43359375 C-1.02178938 9.14441261 -0.92948067 7.05950818 -1 4.75 C-1 1 -1 1 0 0 Z " fill="#B44226" transform="translate(81,100)"/>
<path d="M0 0 C3.3 0 6.6 0 10 0 C11.32 3.3 12.64 6.6 14 10 C14.52207031 9.278125 15.04414063 8.55625 15.58203125 7.8125 C21.52237746 0.32204594 21.52237746 0.32204594 26.046875 -0.6640625 C28.761393 -0.62890035 31.32447305 -0.45008865 34 0 C31.53195876 10.72547708 28.90512869 21.38391802 26 32 C22.7 32 19.4 32 16 32 C16.51958285 27.62065881 17.05675742 23.31196609 18 19 C17.51789063 19.5053125 17.03578125 20.010625 16.5390625 20.53125 C15.59160156 21.50578125 15.59160156 21.50578125 14.625 22.5 C13.99851562 23.1496875 13.37203125 23.799375 12.7265625 24.46875 C11 26 11 26 9 26 C7.515 22.535 7.515 22.535 6 19 C4.68 23.29 3.36 27.58 2 32 C-1.3 32 -4.6 32 -8 32 C-7.38569577 24.8706101 -5.50188332 18.33494834 -3.4375 11.5 C-3.10814453 10.39140625 -2.77878906 9.2828125 -2.43945312 8.140625 C-1.63189543 5.42535856 -0.81862271 2.71194685 0 0 Z " fill="#FFFFFF" transform="translate(354,104)"/>
<path d="M0 0 C0.5775 0.20625 1.155 0.4125 1.75 0.625 C-19.19811796 17.42995969 -44.94750705 27.52409319 -69.671875 37.390625 C-76.76235903 40.28159488 -82.52208059 43.50320963 -88.25 48.625 C-88.58 47.965 -88.91 47.305 -89.25 46.625 C-74.43298287 20.74210932 -43.65962299 13.92403204 -17.27075195 5.30566406 C-16.57170746 5.07638214 -15.87266296 4.84710022 -15.1524353 4.61087036 C-13.23586183 3.98291563 -11.31804228 3.35876771 -9.40014648 2.73486328 C-6.34182359 1.7357779 -6.34182359 1.7357779 -3.96118164 0.45654297 C-2.25 -0.375 -2.25 -0.375 0 0 Z " fill="#FDFAF7" transform="translate(116.25,71.375)"/>
<path d="M0 0 C0.80373047 -0.02900391 1.60746094 -0.05800781 2.43554688 -0.08789062 C7.87612973 -0.14572184 11.05046011 0.60637835 15.3125 4.3125 C17.32786061 8.5850645 17.55084919 10.5180027 16.1875 15.0625 C14.43080136 18.10744431 13.35590008 19.64353867 10.3125 21.3125 C9.6525 21.3125 8.9925 21.3125 8.3125 21.3125 C8.60125 21.85519531 8.89 22.39789063 9.1875 22.95703125 C9.55875 23.67246094 9.93 24.38789063 10.3125 25.125 C10.869375 26.18654297 10.869375 26.18654297 11.4375 27.26953125 C12.3125 29.3125 12.3125 29.3125 12.3125 32.3125 C8.6825 32.3125 5.0525 32.3125 1.3125 32.3125 C0.3225 29.3425 -0.6675 26.3725 -1.6875 23.3125 C-2.6775 23.3125 -3.6675 23.3125 -4.6875 23.3125 C-5.3475 26.2825 -6.0075 29.2525 -6.6875 32.3125 C-9.9875 32.3125 -13.2875 32.3125 -16.6875 32.3125 C-16.0296145 25.46226726 -14.45752347 19.01676261 -12.6875 12.375 C-12.41421875 11.32248047 -12.1409375 10.26996094 -11.859375 9.18554688 C-9.58743572 0.55997349 -9.0387718 0.10617195 0 0 Z M-0.6875 9.3125 C-1.3475 11.2925 -2.0075 13.2725 -2.6875 15.3125 C-0.0475 14.9825 2.5925 14.6525 5.3125 14.3125 C5.6425 12.6625 5.9725 11.0125 6.3125 9.3125 C4.0025 9.3125 1.6925 9.3125 -0.6875 9.3125 Z " fill="#FFFFFF" transform="translate(269.6875,103.6875)"/>
<path d="M0 0 C3.50435454 2.93387822 5.40794568 4.93202873 5.96875 9.58203125 C6.19099725 15.75865261 5.47010952 20.11296597 1.24609375 24.875 C-3.07070865 29.04156566 -7.31642333 30.90884391 -13.3125 31.25 C-17.2739119 31.08373636 -20.11040246 30.31620825 -23.109375 27.65625 C-26.42909963 23.92551185 -28.12525974 21.15985066 -28.625 16.0625 C-28.13741225 10.11392939 -25.94352085 5.42539434 -21.5 1.375 C-14.34305484 -3.39629678 -7.5217586 -3.97375926 0 0 Z M-15.75 8.75 C-18.06764813 12.45823701 -17.73209259 14.91420994 -17.3125 19.25 C-15.44286002 21.51298437 -15.44286002 21.51298437 -12.5 21.6875 C-9.15341055 21.48770735 -9.15341055 21.48770735 -6.4375 19.125 C-4.0825152 16.41716658 -4.0825152 16.41716658 -3.875 13.125 C-4.13405068 10.05919458 -4.13405068 10.05919458 -6.3125 7.25 C-10.152817 6.75218113 -12.4153644 6.69791655 -15.75 8.75 Z " fill="#FEFEFE" transform="translate(248.3125,105.75)"/>
<path d="M0 0 C8.58 0 17.16 0 26 0 C25.34 2.97 24.68 5.94 24 9 C22.85660156 9.04898438 21.71320313 9.09796875 20.53515625 9.1484375 C19.04424527 9.22345189 17.55336108 9.29900028 16.0625 9.375 C14.93038086 9.42140625 14.93038086 9.42140625 13.77539062 9.46875 C11.84492605 9.5726315 9.92057919 9.77895614 8 10 C7.67 10.66 7.34 11.32 7 12 C11.62 12 16.24 12 21 12 C20.125 18.875 20.125 18.875 19 20 C15.37733706 20.28528471 11.75469566 20.44912228 8.125 20.62109375 C7.09375 20.74613281 6.0625 20.87117188 5 21 C4.67 21.66 4.34 22.32 4 23 C9.28 23 14.56 23 20 23 C19.34 25.97 18.68 28.94 18 32 C9.42 32 0.84 32 -8 32 C-7.36580159 27.56061111 -6.74487802 23.62537999 -5.625 19.35546875 C-5.36203125 18.34935547 -5.0990625 17.34324219 -4.828125 16.30664062 C-4.55484375 15.27732422 -4.2815625 14.24800781 -4 13.1875 C-3.72671875 12.13884766 -3.4534375 11.09019531 -3.171875 10.00976562 C-1.13686224 2.27372449 -1.13686224 2.27372449 0 0 Z " fill="#FFFFFF" transform="translate(292,104)"/>
<path d="M0 0 C1.37478516 0.01740234 1.37478516 0.01740234 2.77734375 0.03515625 C3.69644531 0.04417969 4.61554688 0.05320312 5.5625 0.0625 C6.27277344 0.07410156 6.98304688 0.08570312 7.71484375 0.09765625 C7.28171875 1.85142578 7.28171875 1.85142578 6.83984375 3.640625 C6.46454561 5.18872984 6.08956215 6.73691098 5.71484375 8.28515625 C5.5240625 9.05408203 5.33328125 9.82300781 5.13671875 10.61523438 C4.19860954 14.51843878 3.45527167 18.0499542 3.71484375 22.09765625 C5.69484375 22.09765625 7.67484375 22.09765625 9.71484375 22.09765625 C11.94480752 17.18406845 13.58417557 12.38666743 14.90234375 7.16015625 C15.07958984 6.47630859 15.25683594 5.79246094 15.43945312 5.08789062 C15.86951796 3.42574815 16.29289812 1.76187837 16.71484375 0.09765625 C20.01484375 0.09765625 23.31484375 0.09765625 26.71484375 0.09765625 C26.27894612 5.43740223 25.22321052 10.53526376 23.90234375 15.72265625 C23.58652344 16.97304687 23.27070313 18.2234375 22.9453125 19.51171875 C21.35625831 24.14267666 19.31859741 27.76883179 15.52734375 30.91015625 C10.12478275 33.19123756 4.97347237 33.79865742 -0.66015625 31.97265625 C-3.17862939 30.84887541 -4.35538492 30.02303828 -6.28515625 27.97265625 C-9.39765761 19.02421483 -6.03733033 9.76313609 -3.28515625 1.09765625 C-2.28515625 0.09765625 -2.28515625 0.09765625 0 0 Z " fill="#FFFFFF" transform="translate(323.28515625,103.90234375)"/>
<path d="M0 0 C2.0193642 4.03872841 1.63652899 8.95583262 0.31640625 13.1953125 C-2.4686846 19.27397552 -6.06034872 22.77976739 -12.3125 25.375 C-18.33262264 26.39535977 -23.6117292 25.96780604 -29 23 C-28.69888747 16.97774934 -26.12816268 13.17644528 -22 9 C-15.14556844 3.73291048 -8.76560317 0 0 0 Z " fill="#FDFEFD" transform="translate(64,110)"/>
<path d="M0 0 C1.16781006 0.00523682 2.33562012 0.01047363 3.53881836 0.01586914 C4.79887695 0.0190918 6.05893555 0.02231445 7.35717773 0.02563477 C8.6976732 0.03399136 10.03816799 0.04245632 11.37866211 0.05102539 C12.72306153 0.05603879 14.06746271 0.06060197 15.41186523 0.06469727 C18.71334151 0.07653051 22.01473014 0.09301568 25.31616211 0.11352539 C24.65616211 3.08352539 23.99616211 6.05352539 23.31616211 9.11352539 C20.01616211 9.11352539 16.71616211 9.11352539 13.31616211 9.11352539 C13.23366211 10.12415039 13.15116211 11.13477539 13.06616211 12.17602539 C12.24387913 18.96292823 10.15514752 25.54449845 8.31616211 32.11352539 C5.01616211 32.11352539 1.71616211 32.11352539 -1.68383789 32.11352539 C-1.13020328 24.0858235 0.97304155 16.77498472 3.31616211 9.11352539 C0.67616211 9.11352539 -1.96383789 9.11352539 -4.68383789 9.11352539 C-3.68856005 0.15602478 -3.68856005 0.15602478 0 0 Z " fill="#FEFEFE" transform="translate(198.683837890625,103.886474609375)"/>
<path d="M0 0 C-1.26747679 3.80243037 -2.55081132 4.21703681 -5.9375 6.25 C-9.70872085 8.55544389 -13.32358581 10.93247077 -16.875 13.5625 C-30.20421013 22.91817588 -44.80965376 26.80062152 -61 26 C-61 25.34 -61 24.68 -61 24 C-59.86643066 23.7071814 -59.86643066 23.7071814 -58.70996094 23.40844727 C-49.17079859 20.73340969 -40.93097481 16.62228726 -32.25 11.9375 C-10.00392977 0 -10.00392977 0 0 0 Z " fill="#FEFEFD" transform="translate(144,70)"/>
<path d="M0 0 C3.31256692 1.65628346 3.69428018 5.19949881 4.90234375 8.5546875 C5.9861146 10.96906669 7.01330712 12.29065171 9 14 C7.87810471 16.24379059 6.74553619 18.44531166 5.5 20.625 C3.56504836 24.97864119 2.78594779 29.32129903 2 34 C1.34 34 0.68 34 0 34 C-0.65134925 32.43979133 -1.29582964 30.87671421 -1.9375 29.3125 C-2.29714844 28.44238281 -2.65679687 27.57226562 -3.02734375 26.67578125 C-6.41574824 17.3542669 -4.83336131 9.89832466 -1 1 C-0.67 0.67 -0.34 0.34 0 0 Z " fill="#B54224" transform="translate(17,140)"/>
<path d="M0 0 C0 0.66 0 1.32 0 2 C-1.32 2.33 -2.64 2.66 -4 3 C-4 4.32 -4 5.64 -4 7 C-8.455 6.01 -8.455 6.01 -13 5 C-10.79970166 2.79970166 -9.4218744 2.31417391 -6.5 1.375 C-5.30890625 0.98441406 -5.30890625 0.98441406 -4.09375 0.5859375 C-2 0 -2 0 0 0 Z " fill="#F7E6D6" transform="translate(88,81)"/>
<path d="M0 0 C0.33 0.66 0.66 1.32 1 2 C0.01 3.485 0.01 3.485 -1 5 C-1.639375 6.010625 -2.27875 7.02125 -2.9375 8.0625 C-5 11 -5 11 -8 13 C-6.63589551 7.40717158 -3.84616474 4.08806189 0 0 Z " fill="#F7DCD0" transform="translate(35,107)"/>
<path d="M0 0 C0 0.66 0 1.32 0 2 C-1.4096347 2.70180531 -2.82807641 3.38593958 -4.25 4.0625 C-5.03890625 4.44535156 -5.8278125 4.82820313 -6.640625 5.22265625 C-9.25993522 6.08564091 -10.44855176 5.93045933 -13 5 C-11.730447 4.35165346 -10.45930294 3.70642185 -9.1875 3.0625 C-8.47980469 2.70285156 -7.77210937 2.34320313 -7.04296875 1.97265625 C-4.66983249 0.84280744 -2.65322674 0 0 0 Z " fill="#F5DECD" transform="translate(64,90)"/>
<path d="M0 0 C1.32 0.33 2.64 0.66 4 1 C2.02 3.31 0.04 5.62 -2 8 C-2.33 6.68 -2.66 5.36 -3 4 C-1.5625 1.75 -1.5625 1.75 0 0 Z " fill="#B04736" transform="translate(34,104)"/>
<path d="M0 0 C-3.74525799 3.74525799 -7.98270909 3.68909949 -13 4 C-10.56272708 2.37515139 -8.62713877 1.34310925 -5.9375 0.3125 C-5.24527344 0.04050781 -4.55304688 -0.23148437 -3.83984375 -0.51171875 C-2 -1 -2 -1 0 0 Z " fill="#F3D6C6" transform="translate(102,77)"/>
</svg>
